<svg width="23" height="18" viewBox="0 0 23 18" fill="none" xmlns="http://www.w3.org/2000/svg">
<path d="M11.249 0C8.09277 0 5.56543 1.4375 3.72559 3.14844C1.89746 4.84375 0.674805 6.875 0.0966797 8.26953C-0.0322266 8.57812 -0.0322266 8.92187 0.0966797 9.23047C0.674805 10.625 1.89746 12.6562 3.72559 14.3516C5.56543 16.0625 8.09277 17.5 11.249 17.5C14.4053 17.5 16.9326 16.0625 18.7725 14.3516C20.6006 12.6523 21.8232 10.625 22.4053 9.23047C22.5342 8.92187 22.5342 8.57812 22.4053 8.26953C21.8232 6.875 20.6006 4.84375 18.7725 3.14844C16.9326 1.4375 14.4053 0 11.249 0ZM5.62402 8.75C5.62402 7.25816 6.21666 5.82742 7.27155 4.77252C8.32644 3.71763 9.75718 3.125 11.249 3.125C12.7409 3.125 14.1716 3.71763 15.2265 4.77252C16.2814 5.82742 16.874 7.25816 16.874 8.75C16.874 10.2418 16.2814 11.6726 15.2265 12.7275C14.1716 13.7824 12.7409 14.375 11.249 14.375C9.75718 14.375 8.32644 13.7824 7.27155 12.7275C6.21666 11.6726 5.62402 10.2418 5.62402 8.75ZM11.249 6.25C11.249 7.62891 10.1279 8.75 8.74902 8.75C8.47168 8.75 8.20605 8.70312 7.95605 8.62109C7.74121 8.55078 7.49121 8.68359 7.49902 8.91016C7.51074 9.17969 7.5498 9.44922 7.62402 9.71875C8.15918 11.7187 10.2178 12.9063 12.2178 12.3711C14.2178 11.8359 15.4053 9.77734 14.8701 7.77734C14.4365 6.15625 13.0029 5.06641 11.4092 5C11.1826 4.99219 11.0498 5.23828 11.1201 5.45703C11.2021 5.70703 11.249 5.97266 11.249 6.25Z" fill="#16A34A"/>
</svg>
